<svg xmlns="http://www.w3.org/2000/svg" xmlns:xlink="http://www.w3.org/1999/xlink" viewBox="0 0 232.59 107.72"><defs><clipPath id="a"><polygon points="181.52 2.28 165.15 18.58 194.45 18.58 165.72 47.31 178.6 60.1 207.3 31.37 207.3 60.64 223.67 44.35 223.67 2.28 181.52 2.28" style="fill:none"/></clipPath></defs><title>logo</title><polygon points="18.43 106.56 6.01 106.56 6.01 81.8 0 81.8 0 71.57 6.01 71.57 6.01 60.35 18.43 60.35 18.43 71.57 25.45 71.57 25.45 81.8 18.43 81.8 18.43 106.56" style="fill:#77838f"/><path d="M41.82,77.3H42c2.38-4.3,6.48-6.21,11.32-6.21h2.39V83a10,10,0,0,0-5.25-1.17c-6.89,0-8.6,4.58-8.6,10.58v14.12H29.41v-35H41.82Z" style="fill:#77838f"/><path d="M98.34,106.56H85.92v-3.89h-.13c-2.19,3.48-6.48,5-10.58,5-10.36,0-17.66-8.66-17.66-18.69s7.16-18.62,17.53-18.62c4,0,8.25,1.5,10.84,4.57V71.57H98.34Zm-28-17.47c0,4.44,2.93,7.85,8,7.85s8-3.41,8-7.85a8,8,0,0,0-16,0" style="fill:#77838f"/><path d="M129.81,102.67h-.14c-2.18,3.48-6.48,5-10.58,5-10.36,0-17.66-8.66-17.66-18.69S108.59,70.41,119,70.41c4,0,8.25,1.5,10.85,4.57v-25h12.41v56.62H129.81ZM114.25,89.09c0,4.44,2.94,7.85,8,7.85s8-3.41,8-7.85a8,8,0,0,0-16,0" style="fill:#77838f"/><path d="M161.08,58.13a7,7,0,1,1-7-7,7,7,0,0,1,7,7m-.75,48.43H147.92v-35h12.41Z" style="fill:#77838f"/><path d="M203.1,91.14H177c0,5,2.66,7.78,7.78,7.78a6.2,6.2,0,0,0,5.93-3.21h11.94a14.23,14.23,0,0,1-6.61,9.07,21.43,21.43,0,0,1-11.19,2.94c-11.6,0-20.26-6.55-20.26-18.63,0-11.66,8-18.68,19.37-18.68,12.14,0,19.17,7.5,19.17,19.44ZM191.57,84a7,7,0,0,0-7-5.53c-3.61,0-6.61,1.92-7.36,5.53Z" style="fill:#77838f"/><path d="M218.74,77.3h.14c2.38-4.3,6.48-6.21,11.32-6.21h2.39V83a10,10,0,0,0-5.25-1.17c-6.9,0-8.6,4.58-8.6,10.58v14.12H206.33v-35h12.41Z" style="fill:#77838f"/><g style="clip-path:url(#a)"><polygon points="165.15 58.8 217.98 7.92 193.31 65.89 165.15 58.8" style="fill:#ffd776"/><polygon points="171.49 54.35 164.56 47.23 192.24 19.23 217.98 7.92 171.49 54.35" style="fill:#f6b350"/><polygon points="162.49 20.11 166.53 16.23 217.99 7.92 194.45 18.58 162.49 20.11" style="fill:#e39196"/><polygon points="207.3 31.37 217.99 7.92 208.96 60.63 207.77 61.78 205.9 60.63 207.3 31.37" style="fill:#99bee5"/><polygon points="217.98 7.92 165.15 18.58 180.99 1.29 217.98 7.92" style="fill:#c44260"/><polygon points="181.52 2.28 188.12 0 224.61 1.73 218.26 7.96 181.52 2.28" style="fill:#9d2951"/><polygon points="207.3 60.63 217.99 7.92 226.15 46.67 207.3 60.63" style="fill:#4797d1"/><polygon points="223.67 44.35 217.98 7.92 223.67 2.28 226.56 39.35 223.67 44.35" style="fill:#0c72af"/></g></svg>